<svg xmlns="http://www.w3.org/2000/svg" xmlns:xlink="http://www.w3.org/1999/xlink" width="366.397" height="100" viewBox="0 0 366.397 100">
  <defs>
    <linearGradient id="linear-gradient" x1="0.5" x2="0.5" y2="1" gradientUnits="objectBoundingBox">
      <stop offset="0" stop-color="#5079d9"/>
      <stop offset="1" stop-color="#385393"/>
    </linearGradient>
  </defs>
  <g id="Group_3107" data-name="Group 3107" transform="translate(-105 -908)">
    <g id="Group_3109" data-name="Group 3109" transform="translate(105 908)">
      <g id="Path_4950" data-name="Path 4950" fill="url(#linear-gradient)">
        <path d="M 349.4337768554688 99.5 L 16.96281814575195 99.5 C 12.55399990081787 99.5 8.411863327026367 97.98427581787109 5.299499988555908 95.23204803466797 C 2.204499959945679 92.49517822265625 0.4999999701976776 88.86136627197266 0.4999999701976776 85 L 0.4999999701976776 15 C 0.4999999701976776 11.13863658905029 2.204499959945679 7.504817962646484 5.299499988555908 4.767954349517822 C 8.411863327026367 2.015727281570435 12.55399990081787 0.5 16.96281814575195 0.5 L 349.4337768554688 0.5 C 353.8425903320312 0.5 357.9846801757812 2.015727281570435 361.0970458984375 4.767954349517822 C 364.1920471191406 7.504817962646484 365.8965454101562 11.13863658905029 365.8965454101562 15 L 365.8965454101562 85 C 365.8965454101562 88.86136627197266 364.1920471191406 92.49517822265625 361.0970458984375 95.23204803466797 C 357.9846801757812 97.98427581787109 353.8425903320312 99.5 349.4337768554688 99.5 Z" stroke="none"/>
        <path d="M 16.9627685546875 1 C 8.160858154296875 1 1 7.280364990234375 1 15 L 1 85 C 1 92.71963500976562 8.160858154296875 99 16.9627685546875 99 L 349.4337158203125 99 C 358.2356262207031 99 365.3965454101562 92.71963500976562 365.3965454101562 85 L 365.3965454101562 15 C 365.3965454101562 7.280364990234375 358.2356262207031 1 349.4337158203125 1 L 16.9627685546875 1 M 16.9627685546875 0 L 349.4337158203125 0 C 358.8020324707031 0 366.3965454101562 6.715728759765625 366.3965454101562 15 L 366.3965454101562 85 C 366.3965454101562 93.28427124023438 358.8020324707031 100 349.4337158203125 100 L 16.9627685546875 100 C 7.594512939453125 100 0 93.28427124023438 0 85 L 0 15 C 0 6.715728759765625 7.594512939453125 0 16.9627685546875 0 Z" stroke="none" fill="#fafafa"/>
      </g>
      <g id="Group_3104" data-name="Group 3104" transform="translate(48.859 35)">
        <text id="事前登録する" transform="translate(48 -1)" fill="#fff" font-size="30" font-family="YuGothicUI-Regular, Yu Gothic UI"><tspan x="0" y="32">事前登録する</tspan></text>
      </g>
    </g>
  </g>
</svg>
