<svg xmlns="http://www.w3.org/2000/svg" width="441" height="104.204" viewBox="0 0 441 104.204">
  <g id="ロゴ" transform="translate(0 3)">
    <g id="Group_225" data-name="Group 225" transform="translate(170.009 16.986)">
      <path id="Path_2180" data-name="Path 2180" d="M647.093,490.188a3.906,3.906,0,0,1,4.029,4.026,4.081,4.081,0,0,1-1.278,2.98,21.678,21.678,0,1,1,0-32.826,3.935,3.935,0,0,1,1.394,3.058,3.98,3.98,0,0,1-1.143,2.9,3.881,3.881,0,0,1-2.886,1.161,4.108,4.108,0,0,1-2.634-.929,14.913,14.913,0,0,0-4.145-2.516,12.84,12.84,0,0,0-4.727-.852,13.3,13.3,0,0,0-5.307,1.065,13.925,13.925,0,0,0-4.341,2.9,13.542,13.542,0,0,0-2.926,4.316,13.752,13.752,0,0,0,0,10.607,13.537,13.537,0,0,0,2.926,4.316,13.925,13.925,0,0,0,4.341,2.9,13.3,13.3,0,0,0,5.307,1.064,13.079,13.079,0,0,0,4.727-.832,13.959,13.959,0,0,0,4.106-2.5A4.342,4.342,0,0,1,647.093,490.188Z" transform="translate(-614.005 -440.523)" fill="#fff"/>
      <path id="Path_2181" data-name="Path 2181" d="M690.206,463.13v.774a22.193,22.193,0,0,1,6.315-3.561,21.158,21.158,0,0,1,7.285-1.24,31.179,31.179,0,0,1,3.661.233,16.088,16.088,0,0,1,3.6.832,7.655,7.655,0,0,1,2.731,1.646,3.6,3.6,0,0,1,1.085,2.709,3.862,3.862,0,0,1-.328,1.588,4.489,4.489,0,0,1-.873,1.3,3.785,3.785,0,0,1-1.278.871,4.041,4.041,0,0,1-1.587.31,4.342,4.342,0,0,1-1.706-.425,14.253,14.253,0,0,0-5.307-.969,13.311,13.311,0,0,0-5.309,1.065,13.543,13.543,0,0,0-7.225,7.219,13.281,13.281,0,0,0-1.066,5.3v17.652a4.034,4.034,0,0,1-4.029,4.025,3.927,3.927,0,0,1-2.885-1.18,3.868,3.868,0,0,1-1.183-2.845v-35.3a3.868,3.868,0,0,1,1.183-2.845,3.928,3.928,0,0,1,2.885-1.182,4.036,4.036,0,0,1,4.029,4.026Z" transform="translate(-632.079 -440.523)" fill="#fff"/>
      <path id="Path_2182" data-name="Path 2182" d="M773.484,498.433v-.774a22.23,22.23,0,0,1-6.314,3.561,21.165,21.165,0,0,1-7.285,1.238,21.675,21.675,0,1,1,21.7-21.677v17.652a4.033,4.033,0,0,1-4.029,4.025,3.929,3.929,0,0,1-2.886-1.18A3.869,3.869,0,0,1,773.484,498.433Zm-13.6-31.24a13.218,13.218,0,0,0-5.346,1.084,13.609,13.609,0,0,0-7.187,7.239,13.559,13.559,0,0,0,0,10.529,13.616,13.616,0,0,0,7.187,7.239,13.642,13.642,0,0,0,10.655,0,13.822,13.822,0,0,0,4.319-2.942,13.987,13.987,0,0,0,2.9-4.316,13.438,13.438,0,0,0,0-10.49,13.96,13.96,0,0,0-2.9-4.316,13.811,13.811,0,0,0-4.319-2.942A13.131,13.131,0,0,0,759.885,467.194Z" transform="translate(-646.963 -440.523)" fill="#fff"/>
      <path id="Path_2183" data-name="Path 2183" d="M835.721,452.368a21.009,21.009,0,0,1,13.6,4.762V437.815a3.905,3.905,0,0,1,4.029-4.027,4,4,0,0,1,2.886,1.141,3.845,3.845,0,0,1,1.183,2.885v36.232a20.712,20.712,0,0,1-6.354,15.329,21.688,21.688,0,1,1-15.343-37.007Zm13.6,21.678a13.044,13.044,0,0,0-1.066-5.245,13.976,13.976,0,0,0-2.905-4.316,13.8,13.8,0,0,0-4.319-2.942,13.634,13.634,0,0,0-10.656,0,13.615,13.615,0,0,0-7.187,7.239,13.559,13.559,0,0,0,0,10.529,13.622,13.622,0,0,0,7.187,7.239,13.643,13.643,0,0,0,10.656,0,13.814,13.814,0,0,0,4.319-2.942,14,14,0,0,0,2.905-4.317A13.043,13.043,0,0,0,849.321,474.047Z" transform="translate(-667.09 -433.788)" fill="#fff"/>
      <path id="Path_2184" data-name="Path 2184" d="M891.882,491.7V437.853a3.984,3.984,0,0,1,1.143-2.884,4.117,4.117,0,0,1,5.772,0,3.989,3.989,0,0,1,1.145,2.884v49.78H901.8a3.882,3.882,0,0,1,2.847,1.18,3.927,3.927,0,0,1,1.183,2.885,4.034,4.034,0,0,1-4.029,4.025h-5.928a3.814,3.814,0,0,1-2.828-1.18A3.908,3.908,0,0,1,891.882,491.7Z" transform="translate(-687.752 -433.788)" fill="#fff"/>
      <path id="Path_2185" data-name="Path 2185" d="M956.839,490.265a3.906,3.906,0,0,1,4.029,4.025,4.016,4.016,0,0,1-1.161,2.9A21.688,21.688,0,1,1,945.525,459.1a22.024,22.024,0,0,1,20.11,13.335,21.691,21.691,0,0,1,1.587,8.343,3.844,3.844,0,0,1-1.183,2.884,3.993,3.993,0,0,1-2.886,1.142H932.47a13.208,13.208,0,0,0,1.937,3.89,13.572,13.572,0,0,0,3,3.02,13.915,13.915,0,0,0,3.8,1.955,13.462,13.462,0,0,0,4.319.7,13.6,13.6,0,0,0,4.688-.774,12.844,12.844,0,0,0,3.952-2.322A4.238,4.238,0,0,1,956.839,490.265Zm1.743-13.51a12.967,12.967,0,0,0-1.958-3.889,13.848,13.848,0,0,0-6.817-4.975,13.347,13.347,0,0,0-4.283-.7,13.517,13.517,0,0,0-4.3.7,14.132,14.132,0,0,0-3.836,1.955,13.4,13.4,0,0,0-3.023,3.02,12.488,12.488,0,0,0-1.9,3.889Z" transform="translate(-696.231 -440.523)" fill="#fff"/>
    </g>
    <g id="Group_226" data-name="Group 226" transform="translate(0 0.142)">
      <path id="Path_2186" data-name="Path 2186" d="M519.3,521.243a58.353,58.353,0,0,1-10.805,8.817c-1,.607-2.005,1.213-3.024,1.8s-2.087,1.069-3.133,1.608l-1.582.788-1.621.693c-1.089.443-2.169.927-3.281,1.31a79.856,79.856,0,0,1-13.66,3.639,85.417,85.417,0,0,1-14.1,1.174,86.592,86.592,0,0,1-27.772-4.589,73.651,73.651,0,0,1-24.277-13.675l.411-.62c4.157,1.97,8.292,3.819,12.516,5.389a118.088,118.088,0,0,0,12.822,4c2.162.547,4.329,1.069,6.523,1.45l3.276.623,3.3.481c2.191.366,4.406.509,6.61.746,1.1.095,2.213.126,3.318.193s2.213.136,3.321.107l3.323.015c1.107-.018,2.212-.1,3.318-.145,2.22-.039,4.414-.345,6.628-.523,2.185-.353,4.4-.6,6.559-1.093,1.084-.228,2.192-.381,3.262-.67l3.231-.823a88.545,88.545,0,0,0,12.572-4.57,87.18,87.18,0,0,0,11.786-6.69Z" transform="translate(-391.694 -440.061)" fill="#0057aa"/>
      <path id="Path_2187" data-name="Path 2187" d="M545.177,450.113c-2.182,11-8.219,21.193-16.128,29.373a80.171,80.171,0,0,1-62.329,23.477,67.106,67.106,0,0,1-16.713-3.527,54,54,0,0,1-14.911-7.9l.426-.73a81.475,81.475,0,0,0,31.457,6.348,90.178,90.178,0,0,0,31.164-5.437,86.058,86.058,0,0,0,27.344-15.959,71.443,71.443,0,0,0,18.88-25.894Z" transform="translate(-396.752 -421.223)" fill="#00adec"/>
      <path id="Path_2188" data-name="Path 2188" d="M492.238,464.513a52.783,52.783,0,0,1-15.052,7.757c-1.362.414-2.72.891-4.112,1.218-1.394.307-2.786.671-4.2.929-1.413.225-2.828.5-4.253.681-1.427.141-2.86.288-4.3.394a78.052,78.052,0,0,1-33.844-5.775,77.136,77.136,0,0,1-28.338-19.44,66.391,66.391,0,0,1-9.855-14.1,53.043,53.043,0,0,1-5.393-16.094l.943-.288a84.673,84.673,0,0,0,19.122,25.716,92.1,92.1,0,0,0,26.508,17.005,86.931,86.931,0,0,0,30.764,6.941,72.556,72.556,0,0,0,31.5-5.79Z" transform="translate(-382.899 -413.221)" fill="#ffaf00"/>
      <path id="Path_2189" data-name="Path 2189" d="M525.58,428.536A72.37,72.37,0,0,1,497.065,444c-.217.062-.436.109-.652.168a31.367,31.367,0,0,0-62.439-5.772l-.011.063a84.916,84.916,0,0,1-13.753-8.057,83.55,83.55,0,0,1-12.3-10.927l-.7.49a54.646,54.646,0,0,0,10.4,13.524,68.294,68.294,0,0,0,13.878,10.277,82.331,82.331,0,0,0,67.2,5.159c10.773-4.043,20.737-10.712,27.515-19.814Z" transform="translate(-389.352 -410.839)" fill="#e85400"/>
    </g>
    <text id="クレドル" transform="translate(289.882 16)" fill="#fff" font-size="18" font-family="PingFangSC-Regular, PingFang SC" letter-spacing="0.38em"><tspan x="-46.26" y="0">クレドル</tspan></text>
  </g>
</svg>
