<svg xmlns="http://www.w3.org/2000/svg" width="70" height="70" viewBox="0 0 70 70">
  <g id="インスタ" transform="translate(-1208.516 -4262.794)">
    <rect id="bg-2" width="70" height="70" rx="35" transform="translate(1208.516 4262.794)" fill="#fff"/>
    <path id="インスタ-2" data-name="インスタ" d="M10.755,35.883A14.669,14.669,0,0,1,5.9,34.949,10.226,10.226,0,0,1,.051,29.1a14.705,14.705,0,0,1-.933-4.855C-.976,22.115-1,21.433-1,16s.024-6.114.121-8.247A14.73,14.73,0,0,1,.055,2.9,9.86,9.86,0,0,1,2.362-.645,9.806,9.806,0,0,1,5.9-2.949a14.6,14.6,0,0,1,4.855-.931C12.89-3.979,13.57-4,19-4s6.114.021,8.247.12a14.588,14.588,0,0,1,4.854.933A9.8,9.8,0,0,1,35.647-.641,9.811,9.811,0,0,1,37.953,2.9a14.713,14.713,0,0,1,.933,4.856c.1,2.134.12,2.815.12,8.247s-.021,6.113-.12,8.246a14.705,14.705,0,0,1-.933,4.855,10.218,10.218,0,0,1-5.851,5.85,14.661,14.661,0,0,1-4.854.933c-2.133.1-2.815.121-8.247.121S12.89,35.98,10.755,35.883ZM10.919-.28A11.056,11.056,0,0,0,7.206.408a6.177,6.177,0,0,0-2.3,1.5,6.216,6.216,0,0,0-1.5,2.3A11.143,11.143,0,0,0,2.72,7.92C2.626,10.027,2.6,10.66,2.6,16s.02,5.971.115,8.081A11.142,11.142,0,0,0,3.4,27.8a6.629,6.629,0,0,0,3.8,3.8,11.075,11.075,0,0,0,3.714.691c2.116.1,2.753.12,8.087.12s5.975-.02,8.082-.116A11.063,11.063,0,0,0,30.8,31.6,6.165,6.165,0,0,0,33.1,30.1a6.24,6.24,0,0,0,1.5-2.3,11.123,11.123,0,0,0,.688-3.714c.1-2.108.116-2.74.116-8.081s-.02-5.975-.116-8.083a11.131,11.131,0,0,0-.688-3.715,6.221,6.221,0,0,0-1.5-2.3,6.177,6.177,0,0,0-2.3-1.5,11.06,11.06,0,0,0-3.715-.688C24.975-.376,24.341-.4,19-.4S13.03-.376,10.919-.28ZM8.734,16A10.267,10.267,0,1,1,19,26.27,10.268,10.268,0,0,1,8.734,16Zm3.6,0A6.667,6.667,0,1,0,19,9.335,6.667,6.667,0,0,0,12.334,16ZM27.279,5.324a2.4,2.4,0,1,1,2.4,2.4h0A2.4,2.4,0,0,1,27.279,5.324Z" transform="translate(1224.516 4281.794)"/>
  </g>
</svg>
