<svg xmlns="http://www.w3.org/2000/svg" width="134.392" height="31.662" viewBox="0 0 134.392 31.662">
  <g id="ロゴ" transform="translate(0 1)">
    <g id="Group_225" data-name="Group 225" transform="translate(51.809 5.969)">
      <path id="Path_2180" data-name="Path 2180" d="M624.089,468.222a1.219,1.219,0,0,1,.88.335,1.123,1.123,0,0,1,.348.846,1.176,1.176,0,0,1-.389.874,6.793,6.793,0,0,1-8.985-.318,6.19,6.19,0,0,1,0-8.994,6.793,6.793,0,0,1,8.985-.318A1.186,1.186,0,0,1,625,462.4a1.207,1.207,0,0,1-.88.341,1.282,1.282,0,0,1-.8-.273,4.582,4.582,0,0,0-1.263-.738,4.048,4.048,0,0,0-1.441-.25,4.189,4.189,0,0,0-1.617.312,4.259,4.259,0,0,0-1.323.852,3.968,3.968,0,0,0-.892,1.266,3.894,3.894,0,0,0,0,3.112,3.966,3.966,0,0,0,.892,1.266,4.259,4.259,0,0,0,1.323.852,4.189,4.189,0,0,0,1.617.312,4.124,4.124,0,0,0,1.441-.244,4.288,4.288,0,0,0,1.251-.732A1.357,1.357,0,0,1,624.089,468.222Z" transform="translate(-614.005 -453.652)" fill="#fff"/>
      <path id="Path_2181" data-name="Path 2181" d="M684.576,460.284v.227a6.837,6.837,0,0,1,1.924-1.045,6.674,6.674,0,0,1,2.22-.364,9.857,9.857,0,0,1,1.116.068,5.066,5.066,0,0,1,1.1.244,2.352,2.352,0,0,1,.832.483,1.035,1.035,0,0,1,.331.795,1.1,1.1,0,0,1-.1.466,1.315,1.315,0,0,1-.266.38,1.155,1.155,0,0,1-.39.256,1.272,1.272,0,0,1-.484.091,1.366,1.366,0,0,1-.52-.125,4.493,4.493,0,0,0-1.617-.284,4.219,4.219,0,0,0-2.934,1.164,4.008,4.008,0,0,0-.885,1.266,3.772,3.772,0,0,0-.325,1.556v5.178a1.116,1.116,0,0,1-.36.835,1.206,1.206,0,0,1-.867.346,1.221,1.221,0,0,1-.879-.346,1.114,1.114,0,0,1-.36-.835V460.284a1.114,1.114,0,0,1,.36-.835,1.221,1.221,0,0,1,.879-.347,1.207,1.207,0,0,1,.867.347A1.116,1.116,0,0,1,684.576,460.284Z" transform="translate(-666.862 -453.652)" fill="#fff"/>
      <path id="Path_2182" data-name="Path 2182" d="M748.946,470.641v-.227a6.849,6.849,0,0,1-1.924,1.045,6.676,6.676,0,0,1-2.22.363,6.5,6.5,0,0,1-4.675-1.862,6.191,6.191,0,0,1,0-8.994,6.8,6.8,0,0,1,9.351,0,6.012,6.012,0,0,1,1.936,4.5v5.178a1.116,1.116,0,0,1-.36.835,1.207,1.207,0,0,1-.867.346,1.221,1.221,0,0,1-.88-.346A1.114,1.114,0,0,1,748.946,470.641Zm-4.144-9.165a4.2,4.2,0,0,0-2.94,1.175,4.051,4.051,0,0,0-.88,1.266,3.842,3.842,0,0,0,0,3.089,4.045,4.045,0,0,0,.88,1.266,4.2,4.2,0,0,0,2.94,1.175,4.132,4.132,0,0,0,1.618-.318,4.222,4.222,0,0,0,1.316-.863,4.1,4.1,0,0,0,.885-1.266,3.807,3.807,0,0,0,0-3.077,4.09,4.09,0,0,0-.885-1.266,4.22,4.22,0,0,0-1.316-.863A4.136,4.136,0,0,0,744.8,461.477Z" transform="translate(-710.389 -453.652)" fill="#fff"/>
      <path id="Path_2183" data-name="Path 2183" d="M820.638,439.239a6.56,6.56,0,0,1,4.145,1.4v-5.667a1.124,1.124,0,0,1,.348-.846,1.219,1.219,0,0,1,.88-.335,1.245,1.245,0,0,1,.88.335,1.107,1.107,0,0,1,.36.846V445.6a5.965,5.965,0,0,1-1.936,4.5,6.8,6.8,0,0,1-9.351,0,6.19,6.19,0,0,1,0-8.994A6.5,6.5,0,0,1,820.638,439.239Zm4.145,6.36a3.7,3.7,0,0,0-.325-1.539,4.094,4.094,0,0,0-.885-1.266,4.218,4.218,0,0,0-1.316-.863,4.3,4.3,0,0,0-3.247,0,4.192,4.192,0,0,0-1.31.857,4.045,4.045,0,0,0-.88,1.266,3.84,3.84,0,0,0,0,3.089,4.039,4.039,0,0,0,.88,1.266,4.193,4.193,0,0,0,2.939,1.175,4.132,4.132,0,0,0,1.618-.318,4.222,4.222,0,0,0,1.316-.863,4.1,4.1,0,0,0,.885-1.266A3.7,3.7,0,0,0,824.782,445.6Z" transform="translate(-769.248 -433.788)" fill="#fff"/>
      <path id="Path_2184" data-name="Path 2184" d="M891.882,450.777v-15.8a1.146,1.146,0,0,1,.348-.846,1.29,1.29,0,0,1,1.759,0,1.147,1.147,0,0,1,.349.846v14.6h.567a1.206,1.206,0,0,1,.867.346,1.131,1.131,0,0,1,.36.846,1.116,1.116,0,0,1-.36.835,1.206,1.206,0,0,1-.867.346H893.1a1.185,1.185,0,0,1-.862-.346A1.125,1.125,0,0,1,891.882,450.777Z" transform="translate(-829.675 -433.788)" fill="#fff"/>
      <path id="Path_2185" data-name="Path 2185" d="M933.889,468.245a1.219,1.219,0,0,1,.879.335,1.124,1.124,0,0,1,.348.846,1.155,1.155,0,0,1-.354.852,6.808,6.808,0,0,1-9-.318,6.19,6.19,0,0,1,0-8.994,6.8,6.8,0,0,1,9.351,0,5.985,5.985,0,0,1,1.936,4.5,1.107,1.107,0,0,1-.36.846,1.243,1.243,0,0,1-.879.335h-9.351a3.82,3.82,0,0,0,.59,1.141,4.06,4.06,0,0,0,.915.886,4.3,4.3,0,0,0,1.157.573,4.474,4.474,0,0,0,2.745-.023,3.951,3.951,0,0,0,1.2-.681A1.321,1.321,0,0,1,933.889,468.245Zm.531-3.963a3.75,3.75,0,0,0-.6-1.141,4.168,4.168,0,0,0-.921-.886,4.307,4.307,0,0,0-1.157-.574,4.211,4.211,0,0,0-1.305-.2,4.264,4.264,0,0,0-1.31.2,4.372,4.372,0,0,0-1.169.574,4.013,4.013,0,0,0-.921.886,3.61,3.61,0,0,0-.578,1.141Z" transform="translate(-854.471 -453.652)" fill="#fff"/>
    </g>
    <g id="Group_226" data-name="Group 226" transform="translate(0 1.027)">
      <path id="Path_2186" data-name="Path 2186" d="M447.506,520.844a17.668,17.668,0,0,1-3.293,2.587c-.3.178-.611.356-.922.528s-.636.313-.955.472l-.482.231-.494.2c-.332.13-.661.272-1,.384a25.09,25.09,0,0,1-4.163,1.068,27.014,27.014,0,0,1-4.3.344,27.317,27.317,0,0,1-8.464-1.346,22.69,22.69,0,0,1-7.4-4.012l.125-.182c1.267.578,2.527,1.12,3.814,1.581a37.023,37.023,0,0,0,3.907,1.174c.659.161,1.319.314,1.988.425l1,.183,1,.141c.668.107,1.343.149,2.014.219.336.028.674.037,1.011.057s.674.04,1.012.031l1.013,0c.337-.005.674-.029,1.011-.043.677-.011,1.345-.1,2.02-.154.666-.1,1.34-.175,2-.321.33-.067.668-.112.994-.2l.985-.241a27.663,27.663,0,0,0,3.831-1.341,26.855,26.855,0,0,0,3.592-1.963Z" transform="translate(-408.619 -497.028)" fill="#0057aa"/>
      <path id="Path_2187" data-name="Path 2187" d="M468.642,449.941a17.4,17.4,0,0,1-4.915,8.617,23.834,23.834,0,0,1-8.712,5.43,24.479,24.479,0,0,1-10.282,1.457,21.136,21.136,0,0,1-5.093-1.035,16.68,16.68,0,0,1-4.544-2.316l.13-.214a25.919,25.919,0,0,0,4.74,1.4,26.347,26.347,0,0,0,4.846.464,28.439,28.439,0,0,0,9.5-1.595,26.477,26.477,0,0,0,8.333-4.682,21.019,21.019,0,0,0,5.754-7.6Z" transform="translate(-423.411 -441.465)" fill="#00adec"/>
      <path id="Path_2188" data-name="Path 2188" d="M416.219,432.911a16.319,16.319,0,0,1-4.587,2.276c-.415.121-.829.261-1.253.357s-.849.2-1.279.272-.862.145-1.3.2-.872.084-1.309.116a24.611,24.611,0,0,1-10.314-1.694,23.555,23.555,0,0,1-8.636-5.7,19.483,19.483,0,0,1-3-4.137,15.166,15.166,0,0,1-1.644-4.722l.287-.085a24.934,24.934,0,0,0,5.827,7.544,28.219,28.219,0,0,0,8.078,4.989,27.359,27.359,0,0,0,9.375,2.036,22.867,22.867,0,0,0,9.6-1.7Z" transform="translate(-382.899 -417.864)" fill="#ffaf00"/>
      <path id="Path_2189" data-name="Path 2189" d="M443.284,416.031a22.329,22.329,0,0,1-8.69,4.536c-.066.018-.133.032-.2.049a9.3,9.3,0,0,0-8.383-9.708,9.488,9.488,0,0,0-10.645,8.015l0,.018a26.128,26.128,0,0,1-4.191-2.364,25.178,25.178,0,0,1-3.748-3.206l-.212.144a16.119,16.119,0,0,0,3.17,3.968,20.781,20.781,0,0,0,4.229,3.015,25.963,25.963,0,0,0,20.48,1.514,18.494,18.494,0,0,0,8.385-5.813Z" transform="translate(-401.769 -410.839)" fill="#e85400"/>
    </g>
    <text id="クレドル" transform="translate(81.486 4)" fill="#fff" font-size="5" font-family="PingFangSC-Regular, PingFang SC" letter-spacing="0.38em"><tspan x="-12.85" y="0">クレドル</tspan></text>
  </g>
</svg>
